<svg version="1.1" viewBox="0.0 0.0 3144.0 664.0" fill="none" stroke="none" stroke-linecap="square" stroke-miterlimit="10" xmlns:xlink="http://www.w3.org/1999/xlink" xmlns="http://www.w3.org/2000/svg"><clipPath id="p.0"><path d="m0 0l3144.0 0l0 664.0l-3144.0 0l0 -664.0z" clip-rule="nonzero"/></clipPath><g clip-path="url(#p.0)"><path fill="#000000" fill-opacity="0.0" d="m0 0l3144.0 0l0 664.0l-3144.0 0z" fill-rule="evenodd"/><path fill="#000000" fill-opacity="0.0" d="m0 0l3144.0 0l0 665.7953l-3144.0 0z" fill-rule="evenodd"/><path fill="#6d9eeb" d="m78.328125 521.0q-6.921875 0 -11.46875 -4.53125q-4.53125 -4.53125 -4.53125 -11.46875l0 -384.53125q0 -7.46875 4.53125 -11.734375q4.546875 -4.265625 11.46875 -4.265625l96.0 0q45.875 0 84.0 15.203125q38.140625 15.203125 66.140625 43.203125q28.0 28.0 43.1875 65.875q15.203125 37.859375 15.203125 83.71875q0 45.859375 -15.203125 84.0q-15.1875 38.125 -43.1875 66.125q-28.0 28.0 -66.140625 43.203125q-38.125 15.203125 -84.0 15.203125l-96.0 0zm16.0 -28.796875l80.0 0q51.734375 0 91.46875 -23.46875q39.734375 -23.46875 62.390625 -64.0q22.671875 -40.53125 22.671875 -92.265625q0 -51.734375 -22.671875 -92.0q-22.65625 -40.265625 -62.390625 -63.734375q-39.734375 -23.46875 -91.46875 -23.46875l-80.0 0l0 358.9375zm395.20642 28.796875q-6.9375 0 -11.46875 -4.53125q-4.53125 -4.53125 -4.53125 -11.46875l0 -259.73438q0 -7.46875 4.53125 -11.734375q4.53125 -4.265625 11.46875 -4.265625q7.453125 0 11.71875 4.265625q4.28125 4.265625 4.28125 11.734375l0 259.73438q0 6.9375 -4.28125 11.46875q-4.265625 4.53125 -11.71875 4.53125zm-0.53125 -353.0625q-10.140625 0 -17.34375 -7.203125q-7.1875 -7.203125 -7.1875 -17.859375q0 -12.265625 7.71875 -18.390625q7.734375 -6.140625 17.34375 -6.140625q9.0625 0 16.796875 6.140625q7.734375 6.125 7.734375 18.390625q0 10.65625 -7.203125 17.859375q-7.203125 7.203125 -17.859375 7.203125zm222.39435 356.26562q-27.734375 0 -58.140625 -10.125q-30.390625 -10.140625 -50.65625 -34.140625q-4.265625 -5.34375 -3.46875 -11.46875q0.796875 -6.140625 6.65625 -10.40625q5.34375 -3.734375 11.46875 -2.65625q6.140625 1.0625 9.875 5.859375q15.46875 18.140625 37.59375 25.34375q22.140625 7.1875 48.265625 7.1875q44.796875 0 63.46875 -16.0q18.671875 -16.0 18.671875 -37.328125q0 -20.796875 -20.0 -34.390625q-20.0 -13.609375 -61.609375 -19.484375q-53.328125 -7.453125 -78.9375 -28.78125q-25.59375 -21.34375 -25.59375 -49.609375q0 -26.671875 13.328125 -45.0625q13.34375 -18.40625 36.53125 -27.734375q23.203125 -9.34375 53.078125 -9.34375q36.265625 0 61.328125 13.078125q25.0625 13.0625 40.53125 34.921875q4.265625 5.34375 2.9375 11.484375q-1.328125 6.125 -8.265625 9.859375q-5.328125 2.65625 -11.203125 1.59375q-5.859375 -1.0625 -10.125 -6.390625q-13.34375 -17.078125 -32.28125 -25.875q-18.921875 -8.796875 -43.984375 -8.796875q-33.609375 0 -52.28125 14.40625q-18.65625 14.390625 -18.65625 34.65625q0 13.875 7.734375 24.28125q7.734375 10.390625 25.328125 17.59375q17.609375 7.1875 46.9375 11.453125q40.0 5.34375 63.1875 18.140625q23.203125 12.796875 33.0625 29.609375q9.875 16.796875 9.875 35.984375q0 25.078125 -16.0 43.75q-16.0 18.65625 -42.140625 28.53125q-26.125 9.859375 -56.515625 9.859375zm306.12946 -3.203125q-29.34375 -0.53125 -52.28125 -13.59375q-22.921875 -13.078125 -35.71875 -36.265625q-12.796875 -23.203125 -12.796875 -52.546875l0 -265.59375q0 -7.46875 4.53125 -12.0q4.53125 -4.53125 11.46875 -4.53125q7.453125 0 11.984375 4.53125q4.546875 4.53125 4.546875 12.0l0 265.59375q0 30.9375 19.1875 50.40625q19.203125 19.46875 49.609375 19.46875l11.734375 0q7.46875 0 12.0 4.53125q4.53125 4.53125 4.53125 12.0q0 6.9375 -4.53125 11.46875q-4.53125 4.53125 -12.0 4.53125l-12.265625 0zm-142.40625 -252.26562q-6.390625 0 -10.390625 -4.0q-4.0 -4.0 -4.0 -10.390625q0 -6.40625 4.0 -10.40625q4.0 -4.0 10.390625 -4.0l144.53125 0q6.40625 0 10.40625 4.0q4.0 4.0 4.0 10.40625q0 6.390625 -4.0 10.390625q-4.0 4.0 -10.40625 4.0l-144.53125 0zm264.54053 252.26562q-6.9375 0 -11.46875 -4.53125q-4.53125 -4.53125 -4.53125 -11.46875l0 -259.73438q0 -7.46875 4.53125 -11.734375q4.53125 -4.265625 11.46875 -4.265625q7.453125 0 11.71875 4.265625q4.28125 4.265625 4.28125 11.734375l0 259.73438q0 6.9375 -4.28125 11.46875q-4.265625 4.53125 -11.71875 4.53125zm-0.53125 -353.0625q-10.140625 0 -17.34375 -7.203125q-7.1875 -7.203125 -7.1875 -17.859375q0 -12.265625 7.71875 -18.390625q7.734375 -6.140625 17.34375 -6.140625q9.0625 0 16.796875 6.140625q7.734375 6.125 7.734375 18.390625q0 10.65625 -7.203125 17.859375q-7.203125 7.203125 -17.859375 7.203125zm375.4569 353.0625q-6.9375 0 -11.46875 -4.53125q-4.53125 -4.53125 -4.53125 -11.46875l0 -143.46875q0 -35.203125 -13.609375 -58.125q-13.59375 -22.9375 -36.796875 -34.40625q-23.1875 -11.46875 -52.53125 -11.46875q-28.796875 0 -51.734375 10.9375q-22.921875 10.9375 -36.265625 30.140625q-13.328125 19.1875 -13.328125 43.1875l-26.671875 0q2.140625 -33.0625 19.734375 -59.453125q17.609375 -26.40625 45.875 -41.609375q28.265625 -15.203125 62.390625 -15.203125q38.40625 0 69.0625 15.734375q30.671875 15.734375 48.265625 45.875q17.609375 30.125 17.609375 74.390625l0 143.46875q0 6.9375 -4.53125 11.46875q-4.53125 4.53125 -11.46875 4.53125zm-236.26562 0q-6.9375 0 -11.46875 -4.53125q-4.53125 -4.53125 -4.53125 -11.46875l0 -259.73438q0 -7.46875 4.53125 -11.734375q4.53125 -4.265625 11.46875 -4.265625q7.46875 0 11.734375 4.265625q4.265625 4.265625 4.265625 11.734375l0 259.73438q0 6.9375 -4.265625 11.46875q-4.265625 4.53125 -11.734375 4.53125zm471.9923 3.203125q-41.59375 0 -74.40625 -19.734375q-32.796875 -19.734375 -51.734375 -53.328125q-18.921875 -33.609375 -18.921875 -75.734375q0 -42.671875 17.59375 -76.265625q17.609375 -33.609375 48.53125 -53.0625q30.9375 -19.46875 70.9375 -19.46875q34.140625 0 62.40625 13.0625q28.265625 13.0625 49.0625 39.734375q4.265625 5.328125 3.1875 11.203125q-1.0625 5.859375 -6.921875 9.59375q-4.796875 3.734375 -10.671875 2.9375q-5.859375 -0.8125 -10.125 -6.140625q-34.140625 -40.53125 -86.9375 -40.53125q-31.46875 0 -55.203125 15.46875q-23.734375 15.46875 -36.796875 42.140625q-13.0625 26.65625 -13.0625 61.328125q0 33.59375 14.390625 60.53125q14.40625 26.9375 39.734375 42.671875q25.34375 15.71875 58.9375 15.71875q21.875 0 41.328125 -6.390625q19.46875 -6.40625 33.875 -19.734375q4.796875 -4.265625 10.65625 -4.796875q5.875 -0.53125 10.140625 3.734375q5.328125 4.796875 5.59375 10.9375q0.28125 6.125 -4.53125 10.390625q-38.921875 35.734375 -97.0625 35.734375zm306.66968 -3.203125q-29.343628 -0.53125 -52.281128 -13.59375q-22.921875 -13.078125 -35.71875 -36.265625q-12.796875 -23.203125 -12.796875 -52.546875l0 -265.59375q0 -7.46875 4.53125 -12.0q4.53125 -4.53125 11.46875 -4.53125q7.453125 0 11.984375 4.53125q4.546875 4.53125 4.546875 12.0l0 265.59375q0 30.9375 19.1875 50.40625q19.203125 19.46875 49.609253 19.46875l11.734375 0q7.46875 0 12.0 4.53125q4.53125 4.53125 4.53125 12.0q0 6.9375 -4.53125 11.46875q-4.53125 4.53125 -12.0 4.53125l-12.265625 0zm-142.40613 -252.26562q-6.390625 0 -10.390625 -4.0q-4.0 -4.0 -4.0 -10.390625q0 -6.40625 4.0 -10.40625q4.0 -4.0 10.390625 -4.0l144.53113 0q6.40625 0 10.40625 4.0q4.0 4.0 4.0 10.40625q0 6.390625 -4.0 10.390625q-4.0 4.0 -10.40625 4.0l-144.53113 0zm243.72815 260.79688q-11.71875 0 -19.453125 -7.734375q-7.734375 -7.734375 -7.734375 -19.46875q0 -11.734375 8.0 -19.1875q8.0 -7.46875 19.1875 -7.46875q11.203125 0 18.9375 7.734375q7.734375 7.734375 7.734375 18.921875q0 11.203125 -7.734375 19.203125q-7.734375 8.0 -18.9375 8.0zm230.4021 -5.328125q-41.59375 0 -74.40625 -19.734375q-32.796875 -19.734375 -51.734375 -53.328125q-18.921875 -33.609375 -18.921875 -75.734375q0 -42.671875 17.59375 -76.265625q17.609375 -33.609375 48.53125 -53.0625q30.9375 -19.46875 70.9375 -19.46875q34.140625 0 62.40625 13.0625q28.265625 13.0625 49.0625 39.734375q4.265625 5.328125 3.1875 11.203125q-1.0625 5.859375 -6.921875 9.59375q-4.796875 3.734375 -10.671875 2.9375q-5.859375 -0.8125 -10.125 -6.140625q-34.140625 -40.53125 -86.9375 -40.53125q-31.46875 0 -55.203125 15.46875q-23.734375 15.46875 -36.796875 42.140625q-13.0625 26.65625 -13.0625 61.328125q0 33.59375 14.390625 60.53125q14.40625 26.9375 39.734375 42.671875q25.34375 15.71875 58.9375 15.71875q21.875 0 41.328125 -6.390625q19.46875 -6.40625 33.875 -19.734375q4.796875 -4.265625 10.65625 -4.796875q5.875 -0.53125 10.140625 3.734375q5.328125 4.796875 5.59375 10.9375q0.28125 6.125 -4.53125 10.390625q-38.921875 35.734375 -97.0625 35.734375zm286.4043 0q-27.734375 0 -58.140625 -10.125q-30.390625 -10.140625 -50.65625 -34.140625q-4.265625 -5.34375 -3.46875 -11.46875q0.796875 -6.140625 6.65625 -10.40625q5.34375 -3.734375 11.46875 -2.65625q6.140625 1.0625 9.875 5.859375q15.46875 18.140625 37.59375 25.34375q22.140625 7.1875 48.265625 7.1875q44.796875 0 63.46875 -16.0q18.671875 -16.0 18.671875 -37.328125q0 -20.796875 -20.0 -34.390625q-20.0 -13.609375 -61.609375 -19.484375q-53.328125 -7.453125 -78.9375 -28.78125q-25.59375 -21.34375 -25.59375 -49.609375q0 -26.671875 13.328125 -45.0625q13.34375 -18.40625 36.53125 -27.734375q23.203125 -9.34375 53.078125 -9.34375q36.265625 0 61.328125 13.078125q25.0625 13.0625 40.53125 34.921875q4.265625 5.34375 2.9375 11.484375q-1.328125 6.125 -8.265625 9.859375q-5.328125 2.65625 -11.203125 1.59375q-5.859375 -1.0625 -10.125 -6.390625q-13.34375 -17.078125 -32.28125 -25.875q-18.921875 -8.796875 -43.984375 -8.796875q-33.609375 0 -52.28125 14.40625q-18.65625 14.390625 -18.65625 34.65625q0 13.875 7.734375 24.28125q7.734375 10.390625 25.328125 17.59375q17.609375 7.1875 46.9375 11.453125q40.0 5.34375 63.1875 18.140625q23.203125 12.796875 33.0625 29.609375q9.875 16.796875 9.875 35.984375q0 25.078125 -16.0 43.75q-16.0 18.65625 -42.140625 28.53125q-26.125 9.859375 -56.515625 9.859375zm285.86377 0q-27.734375 0 -58.140625 -10.125q-30.390625 -10.140625 -50.65625 -34.140625q-4.265625 -5.34375 -3.46875 -11.46875q0.796875 -6.140625 6.65625 -10.40625q5.34375 -3.734375 11.46875 -2.65625q6.140625 1.0625 9.875 5.859375q15.46875 18.140625 37.59375 25.34375q22.140625 7.1875 48.265625 7.1875q44.796875 0 63.46875 -16.0q18.671875 -16.0 18.671875 -37.328125q0 -20.796875 -20.0 -34.390625q-20.0 -13.609375 -61.609375 -19.484375q-53.328125 -7.453125 -78.9375 -28.78125q-25.59375 -21.34375 -25.59375 -49.609375q0 -26.671875 13.328125 -45.0625q13.34375 -18.40625 36.53125 -27.734375q23.203125 -9.34375 53.078125 -9.34375q36.265625 0 61.328125 13.078125q25.0625 13.0625 40.53125 34.921875q4.265625 5.34375 2.9375 11.484375q-1.328125 6.125 -8.265625 9.859375q-5.328125 2.65625 -11.203125 1.59375q-5.859375 -1.0625 -10.125 -6.390625q-13.34375 -17.078125 -32.28125 -25.875q-18.921875 -8.796875 -43.984375 -8.796875q-33.609375 0 -52.28125 14.40625q-18.65625 14.390625 -18.65625 34.65625q0 13.875 7.734375 24.28125q7.734375 10.390625 25.328125 17.59375q17.609375 7.1875 46.9375 11.453125q40.0 5.34375 63.1875 18.140625q23.203125 12.796875 33.0625 29.609375q9.875 16.796875 9.875 35.984375q0 25.078125 -16.0 43.75q-16.0 18.65625 -42.140625 28.53125q-26.125 9.859375 -56.515625 9.859375z" fill-rule="nonzero"/></g></svg>